# xmcd CD database file
#
# Track frame offsets:
#	150
#	14002
#	42805
#	61917
#	80815
#	92507
#	105547
#	120005
#	140992
#	156177
#	178292
#	210945
#
# Disc length: 2873 seconds
#
# Revision: 3
# Processed by: cddbd v1.5.1PL2 Copyright (c) Steve Scherf et al.
# Submitted via: CDex 1.51
#
DISCID=9c0b370c
DTITLE=Room Full of Walters - Sleepy-Head
DYEAR=1997
DGENRE=Christian Rock
TTITLE0=Home
TTITLE1=Pete's a Rocket Scientist
TTITLE2=Jeffrey Dahmer Went to Heaven
TTITLE3=Laughing at the Ground
TTITLE4=Face
TTITLE5=Knees
TTITLE6=That's Not What it's About
TTITLE7=The Wood
TTITLE8=What's Up With You ?
TTITLE9=Kingdom Come
TTITLE10=Sleepy - Head
TTITLE11=Extra Track
EXTD=Christian YEAR: 1997
EXTT0=
EXTT1=
EXTT2=
EXTT3=
EXTT4=
EXTT5=
EXTT6=
EXTT7=
EXTT8=
EXTT9=
EXTT10=
EXTT11=
PLAYORDER=
